<svg width="17" height="18" viewBox="0 0 17 18" fill="none" xmlns="http://www.w3.org/2000/svg">
<path d="M8.49984 13.1665C9.65261 13.1665 10.6353 12.7603 11.4478 11.9478C12.2603 11.1353 12.6665 10.1526 12.6665 8.99984C12.6665 7.84706 12.2603 6.86442 11.4478 6.05192C10.6353 5.23942 9.65261 4.83317 8.49984 4.83317C7.34706 4.83317 6.36442 5.23942 5.55192 6.05192C4.73942 6.86442 4.33317 7.84706 4.33317 8.99984C4.33317 10.1526 4.73942 11.1353 5.55192 11.9478C6.36442 12.7603 7.34706 13.1665 8.49984 13.1665ZM8.49984 17.3332C7.34706 17.3332 6.26373 17.1144 5.24984 16.6769C4.23595 16.2394 3.354 15.6457 2.604 14.8957C1.854 14.1457 1.26025 13.2637 0.822754 12.2498C0.385254 11.2359 0.166504 10.1526 0.166504 8.99984C0.166504 7.84706 0.385254 6.76373 0.822754 5.74984C1.26025 4.73595 1.854 3.854 2.604 3.104C3.354 2.354 4.23595 1.76025 5.24984 1.32275C6.26373 0.885254 7.34706 0.666504 8.49984 0.666504C9.65261 0.666504 10.7359 0.885254 11.7498 1.32275C12.7637 1.76025 13.6457 2.354 14.3957 3.104C15.1457 3.854 15.7394 4.73595 16.1769 5.74984C16.6144 6.76373 16.8332 7.84706 16.8332 8.99984C16.8332 10.1526 16.6144 11.2359 16.1769 12.2498C15.7394 13.2637 15.1457 14.1457 14.3957 14.8957C13.6457 15.6457 12.7637 16.2394 11.7498 16.6769C10.7359 17.1144 9.65261 17.3332 8.49984 17.3332ZM8.49984 15.6665C10.3609 15.6665 11.9373 15.0207 13.229 13.729C14.5207 12.4373 15.1665 10.8609 15.1665 8.99984C15.1665 7.13873 14.5207 5.56234 13.229 4.27067C11.9373 2.979 10.3609 2.33317 8.49984 2.33317C6.63873 2.33317 5.06234 2.979 3.77067 4.27067C2.479 5.56234 1.83317 7.13873 1.83317 8.99984C1.83317 10.8609 2.479 12.4373 3.77067 13.729C5.06234 15.0207 6.63873 15.6665 8.49984 15.6665Z" fill="#062931"/>
</svg>
